<?xml version="1.0" standalone="no"?>
<!DOCTYPE svg PUBLIC "-//W3C//DTD SVG 20010904//EN"
 "http://www.w3.org/TR/2001/REC-SVG-20010904/DTD/svg10.dtd">
<svg version="1.0" xmlns="http://www.w3.org/2000/svg"
 width="260.000000pt" height="260.000000pt" viewBox="0 0 260.000000 260.000000"
 preserveAspectRatio="xMidYMid meet">
<metadata>
Created by potrace 1.14, written by Peter Selinger 2001-2017
</metadata>
<g transform="translate(0.000000,260.000000) scale(0.100000,-0.100000)"
fill="#000000" stroke="none">
<path d="M567 2454 c-1 -1 -31 -5 -67 -8 -36 -4 -81 -10 -99 -14 l-35 -8 0
-1142 c-1 -752 2 -1143 9 -1146 20 -7 562 -4 635 4 197 21 300 41 479 92 293
83 464 220 594 473 54 105 107 266 122 370 3 22 8 47 11 55 3 8 7 71 9 140 6
197 -24 353 -100 517 -48 102 -69 133 -165 243 -91 105 -154 163 -234 217
-148 100 -317 164 -491 187 -83 11 -658 29 -668 20z m518 -58 c120 -10 292
-41 395 -72 72 -21 161 -66 235 -119 77 -54 228 -212 282 -292 173 -261 219
-721 102 -1018 -33 -83 -127 -257 -148 -275 -3 -3 -19 -23 -36 -45 -126 -171
-344 -293 -620 -349 -79 -16 -110 -20 -232 -31 -35 -3 -89 -7 -120 -10 -32 -3
-100 -8 -150 -10 l-93 -5 0 1115 0 1114 38 3 c57 5 257 1 347 -6z"/>
</g>
</svg>
